<?xml version="1.0" encoding="utf-8"?>
<svg viewBox="0 0 500 500" xmlns="http://www.w3.org/2000/svg" xmlns:xlink="http://www.w3.org/1999/xlink" xmlns:bx="https://boxy-svg.com">
  <defs>
    <linearGradient id="color-0" bx:pinned="true">
      <stop style="stop-color: #00dbde;" offset="0"/>
      <stop style="stop-color: #fc00ff;" offset="0.465"/>
      <stop offset="1" style="stop-color: rgb(255, 164, 0);"/>
    </linearGradient>
    <linearGradient id="color-0-0" gradientUnits="userSpaceOnUse" x1="250.369" y1="166.913" x2="250.369" y2="350.706" gradientTransform="matrix(0.467135, 0.884186, -1.20315, 0.635651, 444.064802, -154.343242)" xlink:href="#color-0"/>
    <filter id="gaussian-blur-filter-0" color-interpolation-filters="sRGB" x="-50%" y="-50%" width="200%" height="200%" bx:preset="gaussian-blur 1 15">
      <feGaussianBlur stdDeviation="15 15" edgeMode="none"/>
    </filter>
    <filter id="outline-filter-0" color-interpolation-filters="sRGB" x="-50%" y="-50%" width="200%" height="200%" bx:preset="outline 1 1 #ffffff">
      <feMorphology in="SourceAlpha" result="dilated" operator="dilate" radius="1"/>
      <feFlood flood-color="#ffffff" result="flood"/>
      <feComposite in="flood" in2="dilated" operator="in" result="outline"/>
      <feMerge>
        <feMergeNode in="outline"/>
        <feMergeNode in="SourceGraphic"/>
      </feMerge>
    </filter>
    <filter id="gaussian-blur-filter-1" color-interpolation-filters="sRGB" x="-50%" y="-50%" width="200%" height="200%" bx:preset="gaussian-blur 1 1.6">
      <feGaussianBlur stdDeviation="1.6 1.6" edgeMode="none"/>
    </filter>
    <style bx:fonts="Roboto">@import url(https://fonts.googleapis.com/css2?family=Roboto%3Aital%2Cwght%400%2C100%3B0%2C300%3B0%2C400%3B0%2C500%3B0%2C700%3B0%2C900%3B1%2C100%3B1%2C300%3B1%2C400%3B1%2C500%3B1%2C700%3B1%2C900&amp;display=swap);</style>
  </defs>
  <path d="M 362.098 175.195 C 362.098 178.577 361.512 181.815 360.443 184.8 C 388.588 191.374 409.625 217.646 409.625 249.056 C 409.625 279.59 389.746 305.269 362.784 312.716 L 362.784 313.222 L 360.824 313.222 C 356.271 314.316 337.046 314.316 332.492 313.222 L 168.233 313.222 C 165.353 313.586 162.417 313.774 159.435 313.774 C 156.454 313.774 153.518 313.586 150.639 313.222 L 148.092 313.222 L 148.092 312.853 C 116.37 307.641 92.218 280.947 92.218 248.798 C 92.218 212.913 122.312 183.823 159.435 183.823 C 170.713 183.823 181.342 186.507 190.676 191.252 C 201.958 155.715 232.436 130.25 268.266 130.25 C 288.959 130.25 307.866 138.744 322.323 152.765 C 326.395 149.848 331.303 148.145 336.587 148.145 C 350.677 148.145 362.098 160.256 362.098 175.195 Z" style="stroke: rgb(0, 0, 0); fill: url('#color-0-0'); filter: url('#gaussian-blur-filter-0');"/>
  <path d="M 358.598 175.195 C 358.598 178.27 358.141 180.918 357.149 183.616 L 355.813 187.323 L 358.558 187.956 L 359.658 188.211 C 373.149 191.247 384.436 198.843 392.824 209.762 C 401.32 220.618 406.125 233.949 406.125 249.056 C 406.125 263.74 401.579 276.739 393.509 287.453 C 385.538 298.225 374.786 305.877 361.857 309.341 L 361.284 309.497 L 361.284 309.56 L 360.886 309.643 L 359.685 309.892 C 354.98 310.863 337.364 310.84 333.322 309.822 L 332.914 309.722 L 168.01 309.722 L 167.978 309.726 L 167.791 309.75 C 165.019 310.103 162.306 310.274 159.435 310.274 C 156.599 310.274 153.916 310.108 151.179 309.762 L 151.172 309.807 L 148.649 309.398 C 133.38 307.001 120.461 299.572 110.881 288.608 C 101.206 277.74 95.718 264.21 95.718 248.798 C 95.718 231.59 102.576 216.624 114.342 205.366 C 126.005 193.98 141.568 187.323 159.435 187.323 C 170.287 187.323 180.123 189.764 189.089 194.371 L 192.77 196.246 L 193.302 194.557 L 193.659 193.43 L 194.013 192.305 C 199.429 175.001 209.31 160.604 222.454 150.156 C 235.51 139.635 250.977 133.75 268.266 133.75 C 288.244 133.75 305.933 141.599 319.884 155.276 L 321.99 157.326 L 323.694 156.093 L 324.38 155.598 C 327.99 152.921 331.87 151.645 336.587 151.645 C 342.885 151.645 347.979 153.997 352.091 158.48 C 356.337 162.871 358.598 168.404 358.598 175.195 Z M 351.369 159.172 C 347.418 154.803 342.677 152.645 336.587 152.645 C 332.024 152.645 328.441 153.798 324.974 156.403 L 324.279 156.904 L 321.896 158.628 L 319.186 155.992 C 305.382 142.415 288.042 134.75 268.266 134.75 C 251.155 134.75 236.002 140.491 223.082 150.934 C 210.04 161.274 200.318 175.433 194.967 192.604 L 194.613 193.73 L 194.256 194.859 L 193.368 197.674 L 188.634 195.262 C 179.776 190.695 170.167 188.323 159.435 188.323 C 141.764 188.323 126.549 194.8 115.039 206.083 C 103.381 217.188 96.718 231.798 96.718 248.798 C 96.718 264.022 102.044 277.222 111.629 287.944 C 121.081 298.805 133.707 306.074 148.805 308.41 L 150.019 308.607 L 151.28 308.767 C 153.994 309.111 156.621 309.274 159.435 309.274 C 162.274 309.274 164.925 309.109 167.664 308.758 L 167.851 308.734 L 167.915 308.726 L 167.946 308.722 L 333.036 308.722 L 333.562 308.851 C 337.476 309.855 354.878 309.873 359.481 308.912 L 360.284 308.746 L 360.284 308.735 L 361.594 308.376 C 374.362 304.989 384.847 297.519 392.706 286.857 C 400.704 276.279 405.125 263.576 405.125 249.056 C 405.125 234.119 400.456 221.096 392.038 210.378 C 383.766 199.571 372.76 192.148 359.438 189.186 L 358.332 188.93 L 354.489 188.045 L 356.209 183.275 C 357.178 180.666 357.598 178.186 357.598 175.195 C 357.598 168.592 355.513 163.402 351.369 159.172 Z" style="fill: none;"/>
  <path d="M 362.598 175.195 C 362.598 178.622 362.061 181.56 361.096 184.442 C 375.027 187.847 387.158 195.929 395.983 207.308 C 404.808 218.684 410.125 233.265 410.125 249.056 C 410.125 264.406 405.1 278.616 396.716 289.843 C 388.33 301.072 376.69 309.286 363.284 313.095 L 363.284 313.722 L 360.882 313.722 C 356.167 314.809 337.149 314.809 332.434 313.722 L 168.264 313.722 C 165.379 314.085 162.433 314.274 159.435 314.274 C 156.438 314.274 153.492 314.085 150.608 313.722 L 147.592 313.722 L 147.592 313.277 L 148.011 313.346 C 132.066 310.711 117.941 302.662 107.884 291.258 C 97.827 279.853 91.718 264.967 91.718 248.798 C 91.718 230.75 99.329 214.315 111.558 202.494 C 123.785 190.675 140.774 183.323 159.435 183.323 C 170.774 183.323 181.118 185.942 190.379 190.543 C 196.092 172.946 206.388 157.888 219.953 147.034 C 233.521 136.178 250.261 129.75 268.266 129.75 C 289.061 129.75 307.882 138.22 322.373 152.119 C 326.444 149.314 331.221 147.645 336.587 147.645 C 343.739 147.645 350.311 150.764 354.99 155.725 C 359.666 160.683 362.598 167.628 362.598 175.195 Z M 354.263 156.411 C 349.708 151.582 343.525 148.645 336.587 148.645 C 331.385 148.645 326.623 150.287 322.614 153.171 L 322.275 153.415 L 321.975 153.124 C 307.59 139.152 288.857 130.75 268.266 130.75 C 250.441 130.75 234.027 137.054 220.578 147.815 C 207.126 158.578 196.762 173.7 191.153 191.403 L 190.975 191.965 L 190.449 191.698 C 181.168 186.972 170.652 184.323 159.435 184.323 C 140.973 184.323 124.353 191.516 112.253 203.213 C 100.154 214.909 92.718 230.961 92.718 248.798 C 92.718 264.778 98.685 279.314 108.634 290.596 C 118.584 301.879 132.396 309.783 148.173 312.36 L 148.592 312.428 L 148.592 312.722 L 150.671 312.722 L 150.702 312.726 C 153.565 313.088 156.47 313.274 159.435 313.274 C 162.401 313.274 165.306 313.088 168.17 312.726 L 168.201 312.722 L 332.552 312.722 L 332.609 312.736 C 337.104 313.823 356.213 313.823 360.707 312.736 L 360.764 312.722 L 362.284 312.722 L 362.284 312.335 L 362.651 312.234 C 376.054 308.547 387.621 300.35 395.915 289.244 C 404.21 278.137 409.125 264.24 409.125 249.056 C 409.125 233.437 403.924 219.177 395.193 207.921 C 386.464 196.668 374.32 188.538 360.329 185.287 L 359.782 185.16 L 359.972 184.631 C 361.031 181.686 361.598 178.532 361.598 175.195 C 361.598 167.823 358.819 161.243 354.262 156.411 Z" style=""/>
  <path d="M 362.098 175.195 C 362.098 178.577 361.512 181.815 360.443 184.8 C 388.588 191.374 409.625 217.646 409.625 249.056 C 409.625 279.59 389.746 305.269 362.784 312.716 L 362.784 313.222 L 360.824 313.222 C 356.271 314.316 337.046 314.316 332.492 313.222 L 168.233 313.222 C 165.353 313.586 162.417 313.774 159.435 313.774 C 156.454 313.774 153.518 313.586 150.639 313.222 L 148.092 313.222 L 148.092 312.853 C 116.37 307.641 92.218 280.947 92.218 248.798 C 92.218 212.913 122.312 183.823 159.435 183.823 C 170.713 183.823 181.342 186.507 190.676 191.252 C 201.958 155.715 232.436 130.25 268.266 130.25 C 288.959 130.25 307.866 138.744 322.323 152.765 C 326.395 149.848 331.303 148.145 336.587 148.145 C 350.677 148.145 362.098 160.256 362.098 175.195 Z" style="fill: none; stroke: rgb(255, 255, 255); filter: url('#outline-filter-0');"/>
  <path d="M 380.198 197.739 Q 384.942 195.321 389.686 197.739 L 411.826 209.023 Q 416.57 211.442 416.57 216.278 L 416.57 238.846 Q 416.57 243.683 411.826 246.101 L 389.686 257.385 Q 384.942 259.803 380.198 257.385 L 358.058 246.101 Q 353.314 243.683 353.314 238.846 L 353.314 216.278 Q 353.314 211.442 358.058 209.023 Z" style="fill: none; stroke: rgb(255, 255, 255);" transform="matrix(0.170086, 0.985429, -0.957648, 0.331044, 444.063387, -176.003613)" bx:shape="n-gon 384.942 227.562 36.521 32.241 6 0.15 1@e3e3b99c"/>
  <path d="M 285.772 251.82 Q 290.516 249.402 295.26 251.82 L 317.4 263.104 Q 322.144 265.523 322.144 270.359 L 322.144 292.927 Q 322.144 297.763 317.4 300.182 L 295.26 311.466 Q 290.516 313.884 285.772 311.466 L 263.632 300.182 Q 258.888 297.763 258.888 292.927 L 258.888 270.359 Q 258.888 265.523 263.632 263.104 Z" style="fill: none; stroke: rgb(255, 255, 255);" transform="matrix(0.170086, 0.985429, -0.957648, 0.331044, 455.246047, -173.958369)" bx:shape="n-gon 290.516 281.643 36.521 32.241 6 0.15 1@d9e6b28d"/>
  <path d="M 349.215 142.966 Q 353.959 140.548 358.703 142.966 L 380.843 154.25 Q 385.587 156.669 385.587 161.505 L 385.587 184.073 Q 385.587 188.909 380.843 191.328 L 358.703 202.612 Q 353.959 205.03 349.215 202.612 L 327.075 191.328 Q 322.331 188.91 322.331 184.073 L 322.331 161.505 Q 322.331 156.669 327.075 154.25 Z" style="fill: none; stroke: rgb(255, 255, 255);" transform="matrix(0.170086, 0.985429, -0.957648, 0.331044, 449.646629, -167.761963)" bx:shape="n-gon 353.959 172.789 36.521 32.241 6 0.15 1@b5fd8d18"/>
  <path d="M 298.001 155.744 Q 301.085 154.172 304.169 155.744 L 318.56 163.079 Q 321.644 164.651 321.644 167.794 L 321.644 182.464 Q 321.644 185.608 318.56 187.179 L 304.169 194.514 Q 301.085 196.086 298.001 194.514 L 283.61 187.179 Q 280.526 185.608 280.526 182.464 L 280.526 167.794 Q 280.526 164.651 283.61 163.079 Z" style="fill: none; stroke: rgb(255, 255, 255);" transform="matrix(0.170086, 0.985429, -0.957648, 0.331044, 448.203392, -173.159479)" bx:shape="n-gon 301.085 175.129 23.739 20.957 6 0.15 1@6002678e"/>
  <path d="M 265.111 211.515 Q 268.195 209.943 271.279 211.515 L 285.67 218.85 Q 288.754 220.422 288.754 223.565 L 288.754 238.235 Q 288.754 241.379 285.67 242.95 L 271.279 250.285 Q 268.195 251.857 265.111 250.285 L 250.72 242.95 Q 247.636 241.379 247.636 238.235 L 247.636 223.565 Q 247.636 220.422 250.72 218.85 Z" style="fill: none; stroke: rgb(255, 255, 255);" transform="matrix(0.170086, 0.985429, -0.957648, 0.331044, 452.068423, -174.357909)" bx:shape="n-gon 268.195 230.9 23.739 20.957 6 0.15 1@c9845bc4"/>
  <path d="M 297.505 152.622 Q 301.085 150.797 304.665 152.622 L 321.374 161.138 Q 324.954 162.963 324.954 166.613 L 324.954 183.645 Q 324.954 187.295 321.374 189.12 L 304.665 197.636 Q 301.085 199.461 297.505 197.636 L 280.796 189.12 Q 277.216 187.295 277.216 183.645 L 277.216 166.613 Q 277.216 162.963 280.796 161.138 Z" style="fill: none; stroke: rgb(255, 255, 255);" transform="matrix(0.170086, 0.985429, -0.957648, 0.331044, 408.841911, -141.541193)" bx:shape="n-gon 301.085 175.129 27.562 24.332 6 0.15 1@32c34a74"/>
  <path d="M 380.198 197.739 Q 384.942 195.321 389.686 197.739 L 411.826 209.023 Q 416.57 211.442 416.57 216.278 L 416.57 238.846 Q 416.57 243.683 411.826 246.101 L 389.686 257.385 Q 384.942 259.803 380.198 257.385 L 358.058 246.101 Q 353.314 243.683 353.314 238.846 L 353.314 216.278 Q 353.314 211.442 358.058 209.023 Z" style="fill: none; filter: url('#gaussian-blur-filter-1'); stroke: rgb(255, 255, 255);" transform="matrix(0.170086, 0.985429, -0.957648, 0.331044, 431.21509, -177.240826)" bx:shape="n-gon 384.942 227.562 36.521 32.241 6 0.15 1@e3e3b99c"/>
  <path d="M 285.772 251.82 Q 290.516 249.402 295.26 251.82 L 317.4 263.104 Q 322.144 265.523 322.144 270.359 L 322.144 292.927 Q 322.144 297.763 317.4 300.182 L 295.26 311.466 Q 290.516 313.884 285.772 311.466 L 263.632 300.182 Q 258.888 297.763 258.888 292.927 L 258.888 270.359 Q 258.888 265.523 263.632 263.104 Z" style="fill: none; filter: url('#gaussian-blur-filter-1'); stroke: rgb(255, 255, 255);" transform="matrix(0.170086, 0.985429, -0.957648, 0.331044, 442.395919, -175.194636)" bx:shape="n-gon 290.516 281.643 36.521 32.241 6 0.15 1@d9e6b28d"/>
  <path d="M 349.215 142.966 Q 353.959 140.548 358.703 142.966 L 380.843 154.25 Q 385.587 156.669 385.587 161.505 L 385.587 184.073 Q 385.587 188.909 380.843 191.328 L 358.703 202.612 Q 353.959 205.03 349.215 202.612 L 327.075 191.328 Q 322.331 188.91 322.331 184.073 L 322.331 161.505 Q 322.331 156.669 327.075 154.25 Z" style="fill: none; filter: url('#gaussian-blur-filter-1'); stroke: rgb(255, 255, 255);" transform="matrix(0.170086, 0.985429, -0.957648, 0.331044, 436.800193, -168.999176)" bx:shape="n-gon 353.959 172.789 36.521 32.241 6 0.15 1@b5fd8d18"/>
  <path d="M 298.001 155.744 Q 301.085 154.172 304.169 155.744 L 318.56 163.079 Q 321.644 164.651 321.644 167.794 L 321.644 182.464 Q 321.644 185.608 318.56 187.179 L 304.169 194.514 Q 301.085 196.086 298.001 194.514 L 283.61 187.179 Q 280.526 185.608 280.526 182.464 L 280.526 167.794 Q 280.526 164.651 283.61 163.079 Z" style="fill: none; filter: url('#gaussian-blur-filter-1'); stroke: rgb(255, 255, 255);" transform="matrix(0.170086, 0.985429, -0.957648, 0.331044, 435.356956, -174.396677)" bx:shape="n-gon 301.085 175.129 23.739 20.957 6 0.15 1@6002678e"/>
  <path d="M 265.111 211.515 Q 268.195 209.943 271.279 211.515 L 285.67 218.85 Q 288.754 220.422 288.754 223.565 L 288.754 238.235 Q 288.754 241.379 285.67 242.95 L 271.279 250.285 Q 268.195 251.857 265.111 250.285 L 250.72 242.95 Q 247.636 241.379 247.636 238.235 L 247.636 223.565 Q 247.636 220.422 250.72 218.85 Z" style="fill: none; filter: url('#gaussian-blur-filter-1'); stroke: rgb(255, 255, 255);" transform="matrix(0.170086, 0.985429, -0.957648, 0.331044, 439.220126, -175.594176)" bx:shape="n-gon 268.195 230.9 23.739 20.957 6 0.15 1@c9845bc4"/>
  <path d="M 297.505 152.622 Q 301.085 150.797 304.665 152.622 L 321.374 161.138 Q 324.954 162.963 324.954 166.613 L 324.954 183.645 Q 324.954 187.295 321.374 189.12 L 304.665 197.636 Q 301.085 199.461 297.505 197.636 L 280.796 189.12 Q 277.216 187.295 277.216 183.645 L 277.216 166.613 Q 277.216 162.963 280.796 161.138 Z" style="fill: none; filter: url('#gaussian-blur-filter-1'); stroke: rgb(255, 255, 255);" transform="matrix(0.170086, 0.985429, -0.957648, 0.331044, 395.995476, -142.778391)" bx:shape="n-gon 301.085 175.129 27.562 24.332 6 0.15 1@32c34a74"/>
  <text style="fill: rgb(130, 130, 130); font-family: Roboto; font-size: 23px; font-weight: 300; letter-spacing: 4px; white-space: pre;" x="96.669" y="342.397">cloudlumin.ai</text>
  <text style="white-space: pre; fill: rgb(51, 51, 51); font-family: Arial, sans-serif; font-size: 15.1px;" x="310.193" y="370.598"> </text>
</svg>